<?xml version="1.0" standalone="no"?>
<!DOCTYPE svg PUBLIC "-//W3C//DTD SVG 20010904//EN"
 "http://www.w3.org/TR/2001/REC-SVG-20010904/DTD/svg10.dtd">
<svg version="1.0" xmlns="http://www.w3.org/2000/svg"
 width="72.000000pt" height="72.000000pt" viewBox="0 0 72.000000 72.000000"
 preserveAspectRatio="xMidYMid meet">
<metadata>
Created by potrace 1.11, written by Peter Selinger 2001-2013
</metadata>
<g transform="translate(0.000000,72.000000) scale(0.100000,-0.100000)"
fill="#000000" stroke="none">
<path d="M156 703 c-3 -10 -37 -162 -76 -338 -39 -176 -74 -330 -77 -342 -5
-23 -4 -23 96 -23 56 0 101 3 102 8 1 14 86 384 129 567 17 70 30 130 30 136
0 5 -44 9 -99 9 -86 0 -100 -2 -105 -17z"/>
<path d="M385 708 c-4 -11 -106 -450 -148 -640 l-15 -68 48 0 c38 0 50 4 54
18 3 9 25 100 49 202 25 102 61 253 81 336 20 83 36 154 36 158 0 12 -101 6
-105 -6z"/>
<path d="M517 713 c-5 -10 -140 -575 -162 -681 -7 -33 -6 -33 26 -30 l33 3 33
135 c18 74 35 146 38 160 2 14 23 99 45 190 60 242 59 230 22 230 -17 0 -33
-3 -35 -7z"/>
<path d="M605 708 c-4 -13 -71 -302 -122 -523 -13 -60 -29 -123 -34 -139 -13
-42 -11 -48 13 -44 20 3 26 19 60 163 21 88 58 245 83 348 25 103 45 192 45
197 0 15 -40 12 -45 -2z"/>
<path d="M676 712 c-3 -5 -25 -96 -50 -203 -25 -107 -58 -250 -74 -319 -48
-200 -47 -190 -23 -190 23 0 21 -9 86 270 25 107 59 250 75 318 17 67 30 124
30 127 0 8 -38 6 -44 -3z"/>
</g>
</svg>
